<svg width="41" height="42" viewBox="0 0 41 42" fill="none" xmlns="http://www.w3.org/2000/svg">
<g id="Social Network/Facebook">
<path id="Facebook" fill-rule="evenodd" clip-rule="evenodd" d="M36.5 0H4.5C2.29086 0 0.5 1.84252 0.5 4.11538V37.0384C0.5 39.3113 2.29086 41.1538 4.5 41.1538H36.5C38.7091 41.1538 40.5 39.3113 40.5 37.0384V4.11538C40.5 1.84252 38.7091 0 36.5 0ZM20.5 25.6603V41.1535H26.5V25.6603H31.6258L32.4481 19.8504H26.5V17.3676C26.5 15.1404 27.1107 14.0404 29.178 14.0404H32.5V8.48417L32.4649 8.4794C31.8672 8.39801 30.6367 8.23047 28.3499 8.23047C23.4793 8.23047 20.5 10.8236 20.5 16.7304V19.8504H14.5V25.6603H20.5Z" fill="#F8CA7E"/>
</g>
</svg>
