<svg width="40" height="42" viewBox="0 0 40 42" fill="none" xmlns="http://www.w3.org/2000/svg">
<path fill-rule="evenodd" clip-rule="evenodd" d="M36 0H4C1.79086 0 0 1.84252 0 4.11538V37.0384C0 39.3113 1.79086 41.1538 4 41.1538H36C38.2091 41.1538 40 39.3113 40 37.0384V4.11538C40 1.84252 38.2091 0 36 0ZM20 25.6603V41.1535H26V25.6603H31.1258L31.9481 19.8504H26V17.3676C26 15.1404 26.6107 14.0404 28.678 14.0404H32V8.48417L31.9649 8.4794C31.3672 8.39801 30.1367 8.23047 27.8499 8.23047C22.9793 8.23047 20 10.8236 20 16.7304V19.8504H14V25.6603H20Z" fill="white"/>
</svg>
