<?xml version="1.0" encoding="UTF-8"?>
<svg id="Capa_1" data-name="Capa 1" xmlns="http://www.w3.org/2000/svg" viewBox="0 0 24.72 24.72">
  <defs>
    <style>
      .cls-1 {
        fill-rule: evenodd;
      }

      .cls-1, .cls-2 {
        fill: #2852a0;
        stroke-width: 0px;
      }
    </style>
  </defs>
  <path class="cls-2" d="M12.36,1.69c5.88,0,10.67,4.79,10.67,10.67s-4.79,10.67-10.67,10.67S1.69,18.24,1.69,12.36,6.48,1.69,12.36,1.69M12.36,0C5.53,0,0,5.53,0,12.36s5.53,12.36,12.36,12.36,12.36-5.53,12.36-12.36S19.19,0,12.36,0h0Z"/>
  <path class="cls-1" d="M13.95,7.77c.45-.01.9,0,1.35,0h.19v-2.34c-.24-.02-.49-.06-.74-.07-.46-.02-.92-.04-1.38-.03-.7.01-1.37.19-1.95.6-.67.48-1.03,1.16-1.17,1.95-.06.33-.07.67-.08,1-.01.52,0,1.05,0,1.57v.2h-2.24v2.61h2.22v6.57h2.72v-6.56h2.22c.11-.87.22-1.73.34-2.62-.18,0-.34,0-.5,0-.63,0-2.08,0-2.08,0,0,0,0-1.29.02-1.86.02-.77.48-1,1.09-1.03Z"/>
</svg>