<?xml version="1.0" encoding="UTF-8"?>
<svg id="Capa_1" data-name="Capa 1" xmlns="http://www.w3.org/2000/svg" viewBox="0 0 24.72 24.72">
  <defs>
    <style>
      .cls-1 {
        fill-rule: evenodd;
      }

      .cls-1, .cls-2 {
        fill: #139038;
        stroke-width: 0px;
      }
    </style>
  </defs>
  <path class="cls-2" d="M12.36,1.69c5.88,0,10.67,4.79,10.67,10.67s-4.79,10.67-10.67,10.67S1.69,18.24,1.69,12.36,6.48,1.69,12.36,1.69M12.36,0C5.53,0,0,5.53,0,12.36s5.53,12.36,12.36,12.36,12.36-5.53,12.36-12.36S19.19,0,12.36,0h0Z"/>
  <path class="cls-1" d="M5.83,18.92c.08-.3.14-.55.21-.81.23-.82.46-1.64.67-2.47.03-.12.02-.29-.04-.4-2.09-3.98.07-8.8,4.45-9.83,3.98-.93,7.56,1.75,8.21,5.34.68,3.75-1.77,7.31-5.49,7.96-1.48.26-2.89.04-4.24-.62-.12-.06-.29-.08-.42-.05-1.8.45-2.99.79-3.36.86ZM7.42,17.36c.68-.18,1.3-.33,1.92-.51.17-.05.31-.02.46.07,1.17.67,2.42.92,3.76.71,3.08-.49,5.19-3.38,4.72-6.45-.49-3.18-3.47-5.32-6.62-4.74-3.81.7-5.84,4.95-3.94,8.32.21.37.27.68.13,1.08-.17.48-.27.98-.42,1.52Z"/>
  <path class="cls-1" d="M14.43,15.28c-1.32-.05-3.44-1.09-4.88-3.6-.51-.89-.44-1.91.31-2.61.25-.24.57-.18.87-.13.07.01.15.12.19.21.19.44.38.88.55,1.33.09.24-.07.46-.42.85-.11.12-.13.24-.05.39.56.94,1.33,1.62,2.36,2.02.15.06.26.02.36-.1.54-.66.6-.85.88-.72,1.37.66,1.48.68,1.48.84.05,1.16-1.01,1.57-1.66,1.52Z"/>
</svg>