<?xml version="1.0" encoding="UTF-8"?>
<svg id="Capa_1" data-name="Capa 1" xmlns="http://www.w3.org/2000/svg" xmlns:xlink="http://www.w3.org/1999/xlink" viewBox="0 0 24.72 24.72">
  <defs>
    <style>
      .cls-1 {
        fill: url(#linear-gradient);
      }

      .cls-1, .cls-2, .cls-3 {
        stroke-width: 0px;
      }

      .cls-2 {
        fill: url(#linear-gradient-2);
      }

      .cls-3 {
        fill: url(#linear-gradient-3);
      }
    </style>
    <linearGradient id="linear-gradient" x1="20.86" y1="3.87" x2="2.69" y2="22.03" gradientUnits="userSpaceOnUse">
      <stop offset=".01" stop-color="#3c4f9e"/>
      <stop offset=".18" stop-color="#3e4e9d"/>
      <stop offset=".28" stop-color="#464c9c"/>
      <stop offset=".37" stop-color="#554999"/>
      <stop offset=".44" stop-color="#694496"/>
      <stop offset=".51" stop-color="#843e92"/>
      <stop offset=".58" stop-color="#a4368d"/>
      <stop offset=".62" stop-color="#c03089"/>
      <stop offset=".76" stop-color="#e7343c"/>
      <stop offset="1" stop-color="#fcc559"/>
    </linearGradient>
    <linearGradient id="linear-gradient-2" x1="20.93" y1="3.94" x2="2.77" y2="22.11" xlink:href="#linear-gradient"/>
    <linearGradient id="linear-gradient-3" x1="20.93" y1="3.94" x2="2.77" y2="22.11" xlink:href="#linear-gradient"/>
  </defs>
  <path class="cls-1" d="M12.36,1.69c5.88,0,10.67,4.79,10.67,10.67s-4.79,10.67-10.67,10.67S1.69,18.24,1.69,12.36,6.48,1.69,12.36,1.69M12.36,0C5.53,0,0,5.53,0,12.36s5.53,12.36,12.36,12.36,12.36-5.53,12.36-12.36S19.19,0,12.36,0h0Z"/>
  <path class="cls-2" d="M18.93,9.12c-.09-.86-.42-1.62-1.06-2.23-.67-.64-1.5-.93-2.4-.97-1.54-.08-5.19-.14-6.48.07-1.47.24-2.43,1.09-2.83,2.54-.31,1.11-.25,6.25-.07,7.35.25,1.51,1.14,2.47,2.63,2.86,1.03.27,6.11.23,7.25.05,1.51-.24,2.48-1.13,2.87-2.62.3-1.14.19-6.01.09-7.04ZM17.73,15.67c-.18,1.14-.93,1.85-2.08,1.98-1.06.12-5.77.18-6.75-.09-.94-.26-1.47-.91-1.63-1.85-.15-.9-.19-5.4,0-6.61.17-1.13.93-1.84,2.07-1.97,1.16-.13,5.33-.14,6.45.03,1.14.18,1.85.94,1.97,2.09.12,1.07.15,5.27-.03,6.43ZM12.49,9.03c-1.85,0-3.36,1.5-3.36,3.36,0,1.85,1.5,3.36,3.36,3.36,1.85,0,3.36-1.5,3.36-3.36,0-1.85-1.5-3.36-3.36-3.36ZM12.47,14.55c-1.2-.01-2.16-.99-2.15-2.19.01-1.2.99-2.16,2.19-2.15,1.2.01,2.16.99,2.15,2.19-.01,1.2-.99,2.16-2.19,2.15ZM16.77,8.9c0,.43-.35.79-.79.78-.43,0-.79-.35-.78-.79,0-.43.35-.79.79-.78.43,0,.79.35.78.79Z"/>
  <path class="cls-3" d="M18.93,9.12c-.09-.86-.42-1.62-1.06-2.23-.67-.64-1.5-.93-2.4-.97-1.54-.08-5.19-.14-6.48.07-1.47.24-2.43,1.09-2.83,2.54-.31,1.11-.25,6.25-.07,7.35.25,1.51,1.14,2.47,2.63,2.86,1.03.27,6.11.23,7.25.05,1.51-.24,2.48-1.13,2.87-2.62.3-1.14.19-6.01.09-7.04ZM17.73,15.67c-.18,1.14-.93,1.85-2.08,1.98-1.06.12-5.77.18-6.75-.09-.94-.26-1.47-.91-1.63-1.85-.15-.9-.19-5.4,0-6.61.17-1.13.93-1.84,2.07-1.97,1.16-.13,5.33-.14,6.45.03,1.14.18,1.85.94,1.97,2.09.12,1.07.15,5.27-.03,6.43ZM12.49,9.03c-1.85,0-3.36,1.5-3.36,3.36,0,1.85,1.5,3.36,3.36,3.36,1.85,0,3.36-1.5,3.36-3.36,0-1.85-1.5-3.36-3.36-3.36ZM12.47,14.55c-1.2-.01-2.16-.99-2.15-2.19.01-1.2.99-2.16,2.19-2.15,1.2.01,2.16.99,2.15,2.19-.01,1.2-.99,2.16-2.19,2.15ZM16.77,8.9c0,.43-.35.79-.79.78-.43,0-.79-.35-.78-.79,0-.43.35-.79.79-.78.43,0,.79.35.78.79Z"/>
</svg>