<svg width="41" height="42" viewBox="0 0 41 42" fill="none" xmlns="http://www.w3.org/2000/svg">
<path fill-rule="evenodd" clip-rule="evenodd" d="M12.5 0.0621338H28.5C35.1274 0.0621338 40.5 5.58969 40.5 12.4083V28.8698C40.5 35.6884 35.1274 41.216 28.5 41.216H12.5C5.87258 41.216 0.5 35.6884 0.5 28.8698V12.4083C0.5 5.58969 5.87258 0.0621338 12.5 0.0621338ZM32.5 6.23521C33.5 6.23521 34.5 7.26405 34.5 8.2929C34.5 9.32174 33.5 10.3506 32.5 10.3506C31.5 10.3506 30.5 9.32174 30.5 8.2929C30.5 7.26405 31.5 6.23521 32.5 6.23521ZM30.5 20.6387C30.5 14.9646 26.015 10.3502 20.5 10.3502C14.985 10.3502 10.5 14.9646 10.5 20.6387C10.5 26.3128 14.985 30.9271 20.5 30.9271C26.015 30.9271 30.5 26.3128 30.5 20.6387ZM20.5 14.4664C17.1863 14.4664 14.5 17.2302 14.5 20.6395C14.5 24.0488 17.1863 26.8126 20.5 26.8126C23.8137 26.8126 26.5 24.0488 26.5 20.6395C26.5 17.2302 23.8137 14.4664 20.5 14.4664Z" fill="white"/>
</svg>
