<svg width="41" height="42" viewBox="0 0 41 42" fill="none" xmlns="http://www.w3.org/2000/svg">
<g id="Social Network/Instagram">
<path id="Instagram" fill-rule="evenodd" clip-rule="evenodd" d="M12.5 0H28.5C35.1274 0 40.5 5.52756 40.5 12.3461V28.8077C40.5 35.6263 35.1274 41.1538 28.5 41.1538H12.5C5.87258 41.1538 0.5 35.6263 0.5 28.8077V12.3461C0.5 5.52756 5.87258 0 12.5 0ZM32.5 6.17307C33.5 6.17307 34.5 7.20192 34.5 8.23077C34.5 9.25961 33.5 10.2885 32.5 10.2885C31.5 10.2885 30.5 9.25961 30.5 8.23077C30.5 7.20192 31.5 6.17307 32.5 6.17307ZM30.5 20.5765C30.5 14.9025 26.015 10.2881 20.5 10.2881C14.985 10.2881 10.5 14.9025 10.5 20.5765C10.5 26.2506 14.985 30.865 20.5 30.865C26.015 30.865 30.5 26.2506 30.5 20.5765ZM20.5 14.4043C17.1863 14.4043 14.5 17.1681 14.5 20.5774C14.5 23.9867 17.1863 26.7504 20.5 26.7504C23.8137 26.7504 26.5 23.9867 26.5 20.5774C26.5 17.1681 23.8137 14.4043 20.5 14.4043Z" fill="#F8CA7E"/>
</g>
</svg>
