<svg width="48" height="49" viewBox="0 0 48 49" fill="none" xmlns="http://www.w3.org/2000/svg">
<path fill-rule="evenodd" clip-rule="evenodd" d="M43.2 0H4.8C2.14903 0 0 2.1938 0 4.9V44.1C0 46.8062 2.14903 49 4.8 49L24 49V30.5529H16.8V23.6353H24V19.9205C24 12.8876 27.5752 9.8 33.4199 9.8C36.1641 9.8 37.6406 9.99948 38.3579 10.0964L38.4 10.1021V16.7176H34.4136C31.9328 16.7176 31.2 18.0274 31.2 20.6792V23.6353H38.3377L37.351 30.5529H31.2V49L43.2 49C45.851 49 48 46.8062 48 44.1V4.9C48 2.1938 45.851 0 43.2 0Z" fill="#808080"/>
</svg>
