<svg width="47" height="49" viewBox="0 0 47 49" fill="none" xmlns="http://www.w3.org/2000/svg">
<path fill-rule="evenodd" clip-rule="evenodd" d="M42.3 0H4.7C2.10426 0 0 2.1938 0 4.9V44.1C0 46.8062 2.10426 49 4.7 49H42.3C44.8957 49 47 46.8062 47 44.1V4.9C47 2.1938 44.8957 0 42.3 0ZM36.073 15.2864C37.4383 15.1219 38.7391 14.7571 39.95 14.215C39.0453 15.5785 37.9002 16.7762 36.5804 17.7367C36.5931 18.0288 36.5994 18.3221 36.5994 18.6168C36.5994 27.6077 29.8121 37.975 17.3967 37.975C13.5842 37.975 10.0375 36.8487 7.05 34.9189C7.57891 34.9827 8.11668 35.0146 8.66077 35.0146C11.8241 35.0146 14.7344 33.9266 17.0436 32.1013C14.0903 32.0465 11.5976 30.0784 10.7385 27.3756C11.1497 27.4534 11.5736 27.4968 12.0076 27.4968C12.6238 27.4968 13.221 27.4139 13.7866 27.2583C10.698 26.6345 8.37228 23.8846 8.37228 20.5874V20.5019C9.28205 21.0109 10.3234 21.317 11.4293 21.3527C9.61863 20.1333 8.42795 18.0504 8.42795 15.6908C8.42795 14.4421 8.76073 13.2737 9.34026 12.2686C12.6706 16.3859 17.6434 19.0951 23.2526 19.3782C23.1387 18.8821 23.078 18.3617 23.078 17.8285C23.078 14.0722 26.0996 11.025 29.8273 11.025C31.7683 11.025 33.5221 11.8515 34.7533 13.1742C36.2919 12.8681 37.7369 12.3018 39.0402 11.5224C38.5366 13.1117 37.4674 14.4446 36.073 15.2864Z" fill="#808080"/>
</svg>
