<svg width="48" height="49" viewBox="0 0 48 49" fill="none" xmlns="http://www.w3.org/2000/svg">
<path fill-rule="evenodd" clip-rule="evenodd" d="M43.2 0H4.8C2.14903 0 0 2.1938 0 4.9V44.1C0 46.8062 2.14903 49 4.8 49H43.2C45.851 49 48 46.8062 48 44.1V4.9C48 2.1938 45.851 0 43.2 0ZM9.6 11.1819C9.6 13.2974 11.2808 15.016 13.3593 15.016C15.4313 15.016 17.1164 13.2974 17.1164 11.1819C17.1164 9.06867 15.4313 7.35 13.3593 7.35C11.2829 7.35 9.6 9.06644 9.6 11.1819ZM10.2011 39.2H16.6487V18.041H10.2011V39.2ZM40.8 39.2H34.3567V28.9103C34.3567 26.456 34.313 23.2995 31.0061 23.2995C27.6512 23.2995 27.1354 25.9723 27.1354 28.7319V39.2H20.6921V18.041H26.8775V20.9322H26.9649C27.826 19.2692 29.9286 17.5149 33.065 17.5149C39.5935 17.5149 40.8 21.8974 40.8 27.5951V39.2Z" fill="#808080"/>
</svg>
