<svg width="47" height="49" viewBox="0 0 47 49" fill="none" xmlns="http://www.w3.org/2000/svg">
<path fill-rule="evenodd" clip-rule="evenodd" d="M14.1 0H32.9C40.6872 0 47 6.58141 47 14.7V34.3C47 42.4186 40.6872 49 32.9 49H14.1C6.31278 49 0 42.4186 0 34.3V14.7C0 6.58141 6.31278 0 14.1 0ZM37.6 7.35C38.775 7.35 39.95 8.575 39.95 9.8C39.95 11.025 38.775 12.25 37.6 12.25C36.425 12.25 35.25 11.025 35.25 9.8C35.25 8.575 36.425 7.35 37.6 7.35ZM35.25 24.5C35.25 17.7441 29.9801 12.25 23.5 12.25C17.0199 12.25 11.75 17.7441 11.75 24.5C11.75 31.2559 17.0199 36.75 23.5 36.75C29.9801 36.75 35.25 31.2559 35.25 24.5ZM23.5 17.15C19.6064 17.15 16.45 20.4407 16.45 24.5C16.45 28.5593 19.6064 31.85 23.5 31.85C27.3936 31.85 30.55 28.5593 30.55 24.5C30.55 20.4407 27.3936 17.15 23.5 17.15Z" fill="#808080"/>
</svg>
