<svg width="84" height="84" viewBox="0 0 84 84" fill="none" xmlns="http://www.w3.org/2000/svg">
<path d="M83.6249 19.2791C83.5902 17.4915 83.4469 15.7076 83.1957 13.9374C82.8964 12.3628 82.3877 10.8354 81.6832 9.39575C80.141 6.35117 77.6686 3.87731 74.6249 2.33325C73.1945 1.63205 71.677 1.1248 70.1124 0.824919C68.3287 0.568596 66.5308 0.422485 64.7291 0.387419C63.9666 0.358252 62.9791 0.345752 62.5207 0.345752L21.4874 0.333252C21.0291 0.333252 20.0416 0.345752 19.2791 0.374919C17.4915 0.409363 15.7076 0.552684 13.9374 0.804085C12.3628 1.10342 10.8354 1.6121 9.39575 2.31659C6.35135 3.85909 3.87755 6.33142 2.33325 9.37492C1.63224 10.8054 1.125 12.3229 0.824919 13.8874C0.567432 15.6711 0.419932 17.4689 0.383252 19.2708C0.358252 20.0333 0.341586 21.0208 0.341586 21.4791L0.333252 62.5124C0.333252 62.9708 0.345752 63.9582 0.374919 64.7207C0.409363 66.5084 0.552684 68.2922 0.804085 70.0624C1.10347 71.637 1.61214 73.1644 2.31659 74.6041C3.85909 77.6485 6.33142 80.1223 9.37492 81.6666C10.8054 82.3675 12.3229 82.8747 13.8874 83.1749C15.6712 83.4313 17.469 83.5774 19.2708 83.6124C20.0333 83.6416 21.0208 83.6541 21.4791 83.6541L62.5124 83.6624C62.9708 83.6624 63.9582 83.6499 64.7207 83.6208C66.5084 83.5862 68.2922 83.4428 70.0624 83.1916C71.6369 82.8921 73.1644 82.3834 74.6041 81.6791C77.65 80.1373 80.1254 77.6649 81.6707 74.6208C82.3719 73.1903 82.8791 71.6728 83.1791 70.1083C83.4367 68.3246 83.5842 66.5267 83.6208 64.7249C83.6458 63.9624 83.6624 62.9749 83.6624 62.5166L83.6666 21.4874C83.6666 21.0291 83.6541 20.0416 83.6249 19.2791ZM42.9041 70.9874H42.8916C37.9318 70.9864 33.0514 69.743 28.6958 67.3708L12.9458 71.4999L17.1624 56.1124C13.8976 50.4471 12.5931 43.8629 13.4512 37.3807C14.3092 30.8985 17.2818 24.8805 21.9081 20.2596C26.5345 15.6388 32.556 12.6733 39.0392 11.823C45.5224 10.9727 52.1051 12.285 57.7665 15.5566C63.428 18.8281 67.852 23.876 70.3526 29.9177C72.8532 35.9594 73.2908 42.6573 71.5974 48.9729C69.904 55.2885 66.1743 60.8691 60.9865 64.8493C55.7988 68.8296 49.4428 70.9871 42.9041 70.9874Z" fill="#F8CA7E"/>
<path d="M42.9167 16.5874C38.5045 16.5861 34.1726 17.7669 30.3714 20.0069C26.5702 22.247 23.4385 25.4645 21.302 29.3249C19.1655 33.1853 18.1023 37.5475 18.2228 41.958C18.3434 46.3685 19.6433 50.6662 21.9875 54.4041L22.575 55.3374L20.0792 64.4457L29.425 61.9958L30.325 62.5291C34.1296 64.7823 38.47 65.971 42.8917 65.9708H42.9042C49.4534 65.9719 55.7348 63.3713 60.3665 58.7411C64.9983 54.1109 67.601 47.8304 67.6021 41.2812C67.6032 34.732 65.0026 28.4506 60.3724 23.8188C55.7422 19.1871 49.4617 16.5844 42.9125 16.5833L42.9167 16.5874ZM57.4333 51.8791C56.8872 52.781 56.1603 53.5602 55.2984 54.1676C54.4364 54.7749 53.4581 55.1974 52.425 55.4083C50.8652 55.6758 49.2645 55.5759 47.75 55.1166C46.3137 54.669 44.9021 54.1461 43.5208 53.5499C38.3947 50.9774 34.0254 47.1164 30.8417 42.3458C29.1049 40.1373 28.0507 37.4698 27.8083 34.6708C27.7883 33.5154 28.0092 32.3685 28.4568 31.3032C28.9045 30.2379 29.5691 29.2775 30.4083 28.4832C30.6564 28.2003 30.9602 27.9717 31.3008 27.8118C31.6414 27.6519 32.0114 27.5642 32.3875 27.5541C32.8792 27.5541 33.375 27.5541 33.8083 27.5791C34.2667 27.5999 34.875 27.4041 35.475 28.8541C36.1 30.3374 37.5833 33.9916 37.7667 34.3624C37.8844 34.5568 37.9517 34.7775 37.9626 35.0045C37.9735 35.2315 37.9277 35.4576 37.8292 35.6624C37.6422 36.1082 37.3925 36.5249 37.0875 36.8999C36.7125 37.3333 36.3083 37.8666 35.975 38.1999C35.6 38.5708 35.2167 38.9708 35.6458 39.7124C36.7605 41.621 38.152 43.3537 39.775 44.8541C41.536 46.4197 43.5565 47.6662 45.7458 48.5374C46.4875 48.9124 46.9208 48.8458 47.3542 48.3499C47.7875 47.8541 49.2083 46.1833 49.7042 45.4416C50.2 44.6999 50.6917 44.8249 51.3708 45.0708C52.05 45.3166 55.7042 47.1124 56.4458 47.4874C57.1875 47.8624 57.6833 48.0416 57.8667 48.3499C58.0699 49.5434 57.9193 50.7702 57.4333 51.8791Z" fill="#F8CA7E"/>
</svg>
