<svg width="41" height="42" viewBox="0 0 41 42" fill="none" xmlns="http://www.w3.org/2000/svg">
<path d="M40.48 10.2183C40.4633 9.36022 40.3945 8.50397 40.274 7.65427C40.1303 6.89847 39.8862 6.1653 39.548 5.47427C38.8077 4.01287 37.621 2.82542 36.16 2.08427C35.4734 1.74769 34.745 1.50421 33.994 1.36027C33.1378 1.23723 32.2748 1.1671 31.41 1.15027C31.044 1.13627 30.57 1.13027 30.35 1.13027L10.654 1.12427C10.434 1.12427 9.96 1.13027 9.594 1.14427C8.73594 1.1608 7.87969 1.22959 7.03 1.35027C6.2742 1.49395 5.54103 1.73811 4.85 2.07627C3.38869 2.81667 2.20126 4.00339 1.46 5.46427C1.12351 6.1509 0.880037 6.87931 0.736 7.63027C0.612407 8.48644 0.541606 9.3494 0.524 10.2143C0.512 10.5803 0.504 11.0543 0.504 11.2743L0.5 30.9703C0.5 31.1903 0.506 31.6643 0.52 32.0303C0.536533 32.8883 0.605327 33.7446 0.726 34.5943C0.869703 35.3501 1.11387 36.0832 1.452 36.7743C2.1924 38.2356 3.37912 39.423 4.84 40.1643C5.52665 40.5007 6.25505 40.7442 7.006 40.8883C7.8622 41.0113 8.72517 41.0815 9.59 41.0983C9.956 41.1123 10.43 41.1183 10.65 41.1183L30.346 41.1223C30.566 41.1223 31.04 41.1163 31.406 41.1023C32.2641 41.0857 33.1203 41.0169 33.97 40.8963C34.7258 40.7525 35.4589 40.5083 36.15 40.1703C37.6121 39.4302 38.8002 38.2435 39.542 36.7823C39.8785 36.0957 40.122 35.3672 40.266 34.6163C40.3897 33.7601 40.4605 32.8971 40.478 32.0323C40.49 31.6663 40.498 31.1923 40.498 30.9723L40.5 11.2783C40.5 11.0583 40.494 10.5843 40.48 10.2183ZM20.934 35.0383H20.928C18.5473 35.0378 16.2047 34.441 14.114 33.3023L6.554 35.2843L8.578 27.8983C7.01091 25.1789 6.38474 22.0185 6.7966 18.907C7.20845 15.7956 8.63531 12.9069 10.8559 10.6889C13.0766 8.47093 15.9669 7.04751 19.0789 6.63936C22.1908 6.23121 25.3505 6.86113 28.068 8.43146C30.7855 10.0018 32.909 12.4248 34.1093 15.3248C35.3096 18.2248 35.5196 21.4398 34.7068 24.4713C33.894 27.5028 32.1037 30.1815 29.6136 32.092C27.1235 34.0025 24.0726 35.0381 20.934 35.0383Z" fill="white"/>
<path d="M20.94 8.92626C18.8222 8.92564 16.7428 9.49241 14.9182 10.5676C13.0937 11.6429 11.5905 13.1873 10.5649 15.0402C9.53944 16.8932 9.02908 18.9871 9.08695 21.1041C9.14481 23.2212 9.76879 25.2841 10.894 27.0783L11.176 27.5263L9.97799 31.8983L14.464 30.7223L14.896 30.9783C16.7222 32.0598 18.8056 32.6304 20.928 32.6303H20.934C24.0776 32.6308 27.0927 31.3825 29.3159 29.16C31.5392 26.9375 32.7885 23.9229 32.789 20.7793C32.7895 17.6356 31.5412 14.6206 29.3187 12.3973C27.0962 10.1741 24.0816 8.92479 20.938 8.92426L20.94 8.92626ZM27.908 25.8663C27.6458 26.2992 27.2969 26.6732 26.8832 26.9647C26.4695 27.2563 25.9999 27.459 25.504 27.5603C24.7553 27.6887 23.9869 27.6407 23.26 27.4203C22.5706 27.2054 21.893 26.9544 21.23 26.6683C18.7694 25.4334 16.6722 23.5802 15.144 21.2903C14.3103 20.2302 13.8043 18.9498 13.688 17.6063C13.6784 17.0517 13.7844 16.5012 13.9993 15.9898C14.2141 15.4785 14.5331 15.0175 14.936 14.6363C15.055 14.5004 15.2009 14.3907 15.3644 14.314C15.5279 14.2372 15.7054 14.1951 15.886 14.1903C16.122 14.1903 16.36 14.1903 16.568 14.2023C16.788 14.2123 17.08 14.1183 17.368 14.8143C17.668 15.5263 18.38 17.2803 18.468 17.4583C18.5245 17.5516 18.5568 17.6575 18.562 17.7665C18.5673 17.8754 18.5453 17.984 18.498 18.0823C18.4083 18.2962 18.2884 18.4963 18.142 18.6763C17.962 18.8843 17.768 19.1403 17.608 19.3003C17.428 19.4783 17.244 19.6703 17.45 20.0263C17.985 20.9424 18.653 21.7741 19.432 22.4943C20.2773 23.2457 21.2471 23.844 22.298 24.2623C22.654 24.4423 22.862 24.4103 23.07 24.1723C23.278 23.9343 23.96 23.1323 24.198 22.7763C24.436 22.4203 24.672 22.4803 24.998 22.5983C25.324 22.7163 27.078 23.5783 27.434 23.7583C27.79 23.9383 28.028 24.0243 28.116 24.1723C28.2135 24.7451 28.1412 25.334 27.908 25.8663Z" fill="white"/>
</svg>
